<mxfile host="app.diagrams.net" modified="2021-09-29T23:13:45.938Z" agent="5.0 (X11)" etag="-InhNIIAukHziGQpwhcC" version="15.3.8" type="github">
  <diagram name="Page-1" id="c7488fd3-1785-93aa-aadb-54a6760d102a">
    <mxGraphModel dx="643" dy="378" grid="1" gridSize="10" guides="1" tooltips="1" connect="1" arrows="1" fold="1" page="1" pageScale="1" pageWidth="1100" pageHeight="850" background="none" math="0" shadow="0">
      <root>
        <mxCell id="0" />
        <mxCell id="1" parent="0" />
        <mxCell id="2b4e8129b02d487f-1" value="Fundamentus Web Scraper" style="swimlane;html=1;childLayout=stackLayout;horizontal=1;startSize=20;horizontalStack=0;rounded=0;shadow=0;labelBackgroundColor=none;strokeWidth=1;fontFamily=Verdana;fontSize=8;align=center;" parent="1" vertex="1">
          <mxGeometry x="180" y="70" width="900" height="470" as="geometry" />
        </mxCell>
        <mxCell id="2b4e8129b02d487f-2" value="&lt;div&gt;getStocksList&lt;/div&gt;" style="swimlane;html=1;startSize=20;horizontal=0;" parent="2b4e8129b02d487f-1" vertex="1">
          <mxGeometry y="20" width="900" height="150" as="geometry" />
        </mxCell>
        <mxCell id="2b4e8129b02d487f-18" style="edgeStyle=orthogonalEdgeStyle;rounded=0;html=1;labelBackgroundColor=none;startArrow=none;startFill=0;startSize=5;endArrow=classicThin;endFill=1;endSize=5;jettySize=auto;orthogonalLoop=1;strokeWidth=1;fontFamily=Verdana;fontSize=8" parent="2b4e8129b02d487f-2" source="2b4e8129b02d487f-5" target="2b4e8129b02d487f-6" edge="1">
          <mxGeometry relative="1" as="geometry" />
        </mxCell>
        <mxCell id="2b4e8129b02d487f-5" value="" style="ellipse;whiteSpace=wrap;html=1;rounded=0;shadow=0;labelBackgroundColor=none;strokeWidth=1;fontFamily=Verdana;fontSize=8;align=center;" parent="2b4e8129b02d487f-2" vertex="1">
          <mxGeometry x="60" y="60" width="30" height="30" as="geometry" />
        </mxCell>
        <mxCell id="2b4e8129b02d487f-6" value="List all possible stocks at fundamentus website" style="rounded=1;whiteSpace=wrap;html=1;shadow=0;labelBackgroundColor=none;strokeWidth=1;fontFamily=Verdana;fontSize=8;align=center;" parent="2b4e8129b02d487f-2" vertex="1">
          <mxGeometry x="120" y="48.25" width="120" height="53.5" as="geometry" />
        </mxCell>
        <mxCell id="2b4e8129b02d487f-3" value="stockProcess" style="swimlane;html=1;startSize=20;horizontal=0;" parent="2b4e8129b02d487f-1" vertex="1">
          <mxGeometry y="170" width="900" height="150" as="geometry" />
        </mxCell>
        <mxCell id="6jYvus4GxnY9X1Ky54bn-8" style="edgeStyle=orthogonalEdgeStyle;rounded=0;orthogonalLoop=1;jettySize=auto;html=1;entryX=-0.015;entryY=0.586;entryDx=0;entryDy=0;entryPerimeter=0;" edge="1" parent="2b4e8129b02d487f-3" source="2b4e8129b02d487f-12" target="6jYvus4GxnY9X1Ky54bn-7">
          <mxGeometry relative="1" as="geometry" />
        </mxCell>
        <mxCell id="2b4e8129b02d487f-12" value="Access the detail page for each listed stock" style="rounded=1;whiteSpace=wrap;html=1;shadow=0;labelBackgroundColor=none;strokeWidth=1;fontFamily=Verdana;fontSize=8;align=center;" parent="2b4e8129b02d487f-3" vertex="1">
          <mxGeometry x="220" y="70" width="120" height="50" as="geometry" />
        </mxCell>
        <mxCell id="6jYvus4GxnY9X1Ky54bn-11" style="edgeStyle=orthogonalEdgeStyle;rounded=0;orthogonalLoop=1;jettySize=auto;html=1;entryX=0;entryY=0.5;entryDx=0;entryDy=0;" edge="1" parent="2b4e8129b02d487f-3" source="6jYvus4GxnY9X1Ky54bn-7" target="6jYvus4GxnY9X1Ky54bn-10">
          <mxGeometry relative="1" as="geometry" />
        </mxCell>
        <mxCell id="6jYvus4GxnY9X1Ky54bn-13" value="Yes" style="edgeLabel;html=1;align=center;verticalAlign=middle;resizable=0;points=[];" vertex="1" connectable="0" parent="6jYvus4GxnY9X1Ky54bn-11">
          <mxGeometry x="0.34" y="2" relative="1" as="geometry">
            <mxPoint x="6" y="19" as="offset" />
          </mxGeometry>
        </mxCell>
        <mxCell id="6jYvus4GxnY9X1Ky54bn-19" style="edgeStyle=orthogonalEdgeStyle;rounded=0;orthogonalLoop=1;jettySize=auto;html=1;entryX=-0.001;entryY=0.598;entryDx=0;entryDy=0;entryPerimeter=0;" edge="1" parent="2b4e8129b02d487f-3" source="6jYvus4GxnY9X1Ky54bn-7" target="6jYvus4GxnY9X1Ky54bn-14">
          <mxGeometry relative="1" as="geometry" />
        </mxCell>
        <mxCell id="6jYvus4GxnY9X1Ky54bn-7" value="have data?" style="rhombus;whiteSpace=wrap;html=1;" vertex="1" parent="2b4e8129b02d487f-3">
          <mxGeometry x="410" y="60" width="60" height="60" as="geometry" />
        </mxCell>
        <mxCell id="6jYvus4GxnY9X1Ky54bn-10" value="Gather them all and insert into an array" style="rounded=1;whiteSpace=wrap;html=1;" vertex="1" parent="2b4e8129b02d487f-3">
          <mxGeometry x="470" y="10" width="100" height="50" as="geometry" />
        </mxCell>
        <mxCell id="6jYvus4GxnY9X1Ky54bn-14" value="insert in no data found array and go to next" style="rounded=1;whiteSpace=wrap;html=1;" vertex="1" parent="2b4e8129b02d487f-3">
          <mxGeometry x="500" y="110" width="130" height="40" as="geometry" />
        </mxCell>
        <mxCell id="6jYvus4GxnY9X1Ky54bn-18" value="No" style="text;html=1;align=center;verticalAlign=middle;resizable=0;points=[];autosize=1;strokeColor=none;fillColor=none;" vertex="1" parent="2b4e8129b02d487f-3">
          <mxGeometry x="460" y="110" width="30" height="20" as="geometry" />
        </mxCell>
        <mxCell id="2b4e8129b02d487f-4" value="exportExcel" style="swimlane;html=1;startSize=20;horizontal=0;" parent="2b4e8129b02d487f-1" vertex="1">
          <mxGeometry y="320" width="900" height="150" as="geometry" />
        </mxCell>
        <mxCell id="6jYvus4GxnY9X1Ky54bn-28" style="edgeStyle=orthogonalEdgeStyle;rounded=0;orthogonalLoop=1;jettySize=auto;html=1;entryX=0;entryY=0.5;entryDx=0;entryDy=0;" edge="1" parent="2b4e8129b02d487f-4" source="6jYvus4GxnY9X1Ky54bn-25" target="6jYvus4GxnY9X1Ky54bn-27">
          <mxGeometry relative="1" as="geometry" />
        </mxCell>
        <mxCell id="6jYvus4GxnY9X1Ky54bn-25" value="Build excel file with stocks data" style="rounded=1;whiteSpace=wrap;html=1;" vertex="1" parent="2b4e8129b02d487f-4">
          <mxGeometry x="650" y="45" width="120" height="60" as="geometry" />
        </mxCell>
        <mxCell id="6jYvus4GxnY9X1Ky54bn-27" value="" style="ellipse;whiteSpace=wrap;html=1;aspect=fixed;strokeWidth=3;" vertex="1" parent="2b4e8129b02d487f-4">
          <mxGeometry x="820" y="52.5" width="45" height="45" as="geometry" />
        </mxCell>
        <mxCell id="6jYvus4GxnY9X1Ky54bn-6" style="edgeStyle=orthogonalEdgeStyle;rounded=0;orthogonalLoop=1;jettySize=auto;html=1;entryX=0.5;entryY=0;entryDx=0;entryDy=0;" edge="1" parent="2b4e8129b02d487f-1" source="2b4e8129b02d487f-6" target="2b4e8129b02d487f-12">
          <mxGeometry relative="1" as="geometry">
            <mxPoint x="280" y="230" as="targetPoint" />
            <Array as="points">
              <mxPoint x="280" y="95" />
              <mxPoint x="280" y="240" />
            </Array>
          </mxGeometry>
        </mxCell>
        <mxCell id="6jYvus4GxnY9X1Ky54bn-30" style="edgeStyle=orthogonalEdgeStyle;rounded=0;orthogonalLoop=1;jettySize=auto;html=1;entryX=0.5;entryY=0;entryDx=0;entryDy=0;" edge="1" parent="2b4e8129b02d487f-1" source="6jYvus4GxnY9X1Ky54bn-10" target="6jYvus4GxnY9X1Ky54bn-25">
          <mxGeometry relative="1" as="geometry" />
        </mxCell>
        <mxCell id="6jYvus4GxnY9X1Ky54bn-31" style="edgeStyle=orthogonalEdgeStyle;rounded=0;orthogonalLoop=1;jettySize=auto;html=1;entryX=0.5;entryY=0;entryDx=0;entryDy=0;" edge="1" parent="2b4e8129b02d487f-1" source="6jYvus4GxnY9X1Ky54bn-14" target="6jYvus4GxnY9X1Ky54bn-25">
          <mxGeometry relative="1" as="geometry" />
        </mxCell>
      </root>
    </mxGraphModel>
  </diagram>
</mxfile>
